<svg xmlns="http://www.w3.org/2000/svg" viewBox="0 0 72 72">
    <style>.st0{enable-background:new}.st1{fill:#4c4c4c}</style>
    <g class="st0">
        <path d="M8.6 56c0-.4.2-.6.6-.6h.8c.4 0 .6.2.6.6v2.5h2.9V56c0-.4.2-.6.6-.6h.7c.4 0 .6.2.6.6v6.7c0 .4-.2.6-.6.6H14c-.4 0-.6-.2-.6-.6v-2.5h-2.9v2.5c0 .4-.2.6-.6.6h-.7c-.4 0-.6-.2-.6-.6V56zm10.7 3.8h.2v-.1c0-.5-.4-.6-.8-.6s-.7.1-1 .3c-.4.2-.6.1-.8-.3l-.1-.3c-.2-.3-.1-.6.2-.8.4-.2 1.1-.4 1.9-.4 1.6 0 2.5.9 2.5 2.3v2.9c0 .4-.2.6-.6.6h-.5c-.4 0-.6-.2-.6-.6v-.1s-.5.9-1.7.9c-1.1 0-1.8-.7-1.8-1.7-.1-1.7 1.7-2.1 3.1-2.1zm-.7 2.2c.6 0 1-.5 1-1v-.2h-.2c-.6 0-1.3.2-1.3.7-.1.3.1.5.5.5zm3.8-3.8c0-.4.2-.6.6-.6h.6c.4 0 .6.2.6.6v.2c.3-.4.8-1 1.8-1 1.1 0 2 .5 2 2.1v3.1c0 .4-.2.6-.6.6h-.7c-.4 0-.6-.2-.6-.6V60c0-.5-.2-.7-.6-.7-.8 0-1.2.7-1.2 1.5v2c0 .4-.2.6-.6.6H23c-.4 0-.6-.2-.6-.6v-4.6zm9-.7c1.1 0 1.5.6 1.5.6V56c0-.4.2-.6.6-.6h.7c.4 0 .6.2.6.6v6.7c0 .4-.2.6-.6.6h-.6c-.4 0-.6-.2-.6-.5v-.2s-.5.8-1.6.8c-1.5 0-2.6-1.2-2.6-3 .1-1.7 1.1-2.9 2.6-2.9zm.5 4.4c.6 0 1.1-.4 1.1-1.4 0-.7-.4-1.4-1.1-1.4-.6 0-1.1.5-1.1 1.4 0 .8.4 1.4 1.1 1.4zm4.1-3.7c0-.4.2-.6.6-.6h.6c.4 0 .6.2.6.6v.2c.3-.4.8-1 1.7-1 .7 0 1.3.3 1.6 1 .3-.5 1-1 1.8-1 1 0 1.8.6 1.8 2.1v3.1c0 .4-.2.6-.6.6h-.7c-.4 0-.6-.2-.6-.6v-2.8c0-.4-.1-.7-.4-.7-.8 0-1.1.8-1.1 1.7v1.8c0 .4-.2.6-.6.6H40c-.4 0-.6-.2-.6-.6v-2.8c0-.4-.1-.7-.4-.7-.9 0-1.1.9-1.1 1.7v1.8c0 .4-.2.6-.6.6h-.7c-.4 0-.6-.2-.6-.6v-4.4zm12.6 1.6h.2v-.1c0-.5-.4-.6-.8-.6s-.7.1-1 .3c-.4.2-.6.1-.8-.3l-.2-.3c-.2-.3-.1-.6.2-.8.4-.2 1.1-.4 1.9-.4 1.6 0 2.5.9 2.5 2.3v2.9c0 .4-.2.6-.6.6h-.5c-.4 0-.6-.2-.6-.6v-.1s-.5.9-1.7.9c-1.1 0-1.8-.7-1.8-1.7 0-1.7 1.8-2.1 3.2-2.1zm-.8 2.2c.5 0 1-.5 1-1v-.2h-.2c-.6 0-1.3.2-1.3.7 0 .3.2.5.5.5zm6.2-4.5c1.1 0 1.5.6 1.5.6V56c0-.4.2-.6.6-.6h.7c.4 0 .6.2.6.6v6.7c0 .4-.2.6-.6.6h-.6c-.4 0-.6-.2-.6-.5v-.2s-.5.8-1.6.8c-1.5 0-2.6-1.2-2.6-3 0-1.7 1.1-2.9 2.6-2.9zm.4 4.4c.6 0 1.1-.4 1.1-1.4 0-.7-.4-1.4-1.1-1.4-.6 0-1.1.5-1.1 1.4 0 .8.5 1.4 1.1 1.4zm6.7-4.4c1.7 0 2.6 1.2 2.6 2.7 0 .3-.3.6-.6.6h-3c.1.7.7 1 1.3 1 .4 0 .7-.1 1-.3.4-.2.6-.1.8.2l.2.3c.2.3.1.6-.2.8-.4.2-1.1.5-1.9.5-2 0-3.1-1.5-3.1-3s1.1-2.8 2.9-2.8zm.8 2.2c0-.5-.3-.8-.8-.8s-.8.4-.9.8h1.7z"
              class="st1"/>
    </g>
    <path d="M47.1 40.7c-1.7 1.6-7.9 3.3-12.1 3.2-.7 0-.9-1.1.1-1.1 2 0 2.3.2 6.5-.8 1.1-.2 2.1-.4 2.7-.9.9-.7.8-2.5-.9-2.9-2-.4-5 0-6.8 0-1.8 0-2.5-1.3-5.2-1.1-3.9.3-4.7.7-6.4 1v-.2c0-.8-.6-1.5-1.4-1.5h-1.7c-.8 0-1.4.6-1.4 1.5v8c0 .8.6 1.4 1.4 1.4h1.7c.8 0 1.4-.6 1.4-1.4v-.1c1.3.9 6 3.6 11.5 3.5 6.5-.1 14.8-5.5 15-7.7s-2.7-2.5-4.4-.9zm3-25.8h-1.7c-.8 0-1.4.6-1.4 1.4v.1c-1.3-.9-6-3.6-11.5-3.5-6.5.1-14.8 5.5-15 7.7-.2 2.2 2.7 2.6 4.3 1 1.7-1.6 7.9-3.3 12.1-3.2.7 0 .9 1.1-.1 1.1-2 0-2.3-.2-6.5.8-1.1.2-2.1.4-2.7.9-.9.7-.8 2.5.9 2.9 2 .4 5 0 6.8 0 1.8 0 2.5 1.3 5.2 1.1 3.9-.3 4.7-.7 6.4-1v.2c0 .8.6 1.5 1.4 1.5H50c.8 0 1.4-.6 1.4-1.5v-8c.1-.9-.5-1.5-1.3-1.5zM39 26.2c-1 0-1.9.4-2.5 1-.6-.6-1.5-1-2.5-1-2 0-3.6 1.6-3.6 3.6 0 .8.2 1.5.7 2.1.2.3.4.5.6.7l3.7 3.7c.4.4.7.7 1.1.7.4 0 .7-.4 1.1-.7l3.7-3.7c.2-.2.4-.4.6-.7.4-.6.7-1.3.7-2.1 0-2-1.6-3.6-3.6-3.6z"
          class="st1" id="icons_19_"/>
</svg>