<?xml version="1.0" ?><!DOCTYPE svg  PUBLIC '-//W3C//DTD SVG 1.1//EN'  'http://www.w3.org/Graphics/SVG/1.1/DTD/svg11.dtd'><svg enable-background="new 0 0 128 128" id="Слой_1" version="1.1" viewBox="0 0 128 128" xml:space="preserve" xmlns="http://www.w3.org/2000/svg" xmlns:xlink="http://www.w3.org/1999/xlink"><g><path d="M109.792,37.199c-0.189-0.246-0.481-0.39-0.792-0.39H89.842l-1.571,2h19.431l-8.664,32.815   c-0.418,2.044-2.302,2.955-3.912,3.125l-54.135,4.949L32.037,38.81h16.225l-2.039-2H31.599l-2.054-9.38   c-0.556-2.784-2.975-4.804-5.75-4.804H19c-0.553,0-1,0.448-1,1s0.447,1,1,1h4.795c1.825,0,3.419,1.344,3.793,3.214l2.167,9.894   c-0.002,0.026-0.015,0.049-0.015,0.076c0,0.175,0.057,0.331,0.136,0.474l10.836,49.481c0.548,2.747,2.979,4.741,5.781,4.741h49.464   c0.553,0,1-0.448,1-1s-0.447-1-1-1H46.492c-1.852,0-3.458-1.317-3.824-3.15l-1.246-5.688l53.899-4.927   c2.926-0.308,5.154-2.159,5.663-4.659l8.982-34.015C110.046,37.765,109.981,37.445,109.792,37.199z" fill="#323638"/><path d="M48.113,96.875c-3.308,0-5.999,2.692-5.999,6c0,3.308,2.691,6,5.999,6c3.309,0,6-2.691,6-6   C54.114,99.567,51.422,96.875,48.113,96.875z M48.113,106.838c-2.185,0-3.962-1.778-3.962-3.963c0-2.186,1.777-3.963,3.962-3.963   s3.963,1.778,3.963,3.963C52.077,105.06,50.298,106.838,48.113,106.838z" fill="#323638"/><path d="M91.974,96.875c-3.309,0-6,2.692-6,6c0,3.308,2.691,6,6,6c3.308,0,5.999-2.691,5.999-6   C97.973,99.567,95.282,96.875,91.974,96.875z M91.974,106.838c-2.185,0-3.963-1.778-3.963-3.963c0-2.186,1.778-3.963,3.963-3.963   s3.962,1.778,3.962,3.963C95.936,105.06,94.159,106.838,91.974,106.838z" fill="#323638"/><path d="M67.48,56.802c0.19,0.241,0.479,0.382,0.787,0.382s0.597-0.141,0.787-0.382l28.322-36.06   c0.341-0.434,0.266-1.063-0.169-1.404s-1.063-0.266-1.404,0.169L68.267,54.566L52.375,34.334c-0.341-0.434-0.97-0.509-1.404-0.169   c-0.435,0.341-0.51,0.97-0.169,1.404L67.48,56.802z" fill="#323638"/></g></svg>