<?xml version="1.0" ?><!DOCTYPE svg  PUBLIC '-//W3C//DTD SVG 1.1//EN'  'http://www.w3.org/Graphics/SVG/1.1/DTD/svg11.dtd'><svg enable-background="new 0 0 128 128" id="Слой_1" version="1.1" viewBox="0 0 128 128" xml:space="preserve" xmlns="http://www.w3.org/2000/svg" xmlns:xlink="http://www.w3.org/1999/xlink"><g><path d="M109.792,34.887c-0.189-0.246-0.482-0.39-0.792-0.39H31.599l-2.054-9.381   c-0.557-2.783-2.975-4.804-5.75-4.804H19c-0.552,0-1,0.448-1,1s0.448,1,1,1h4.795c1.825,0,3.418,1.344,3.792,3.214l2.167,9.896   c-0.002,0.026-0.015,0.048-0.015,0.075c0,0.174,0.057,0.33,0.135,0.473L40.71,85.453c0.549,2.747,2.981,4.74,5.782,4.74h49.464   c0.552,0,1-0.448,1-1s-0.448-1-1-1H46.493c-1.851,0-3.458-1.317-3.825-3.15l-1.246-5.688l53.899-4.927   c2.926-0.308,5.154-2.159,5.663-4.659l8.982-34.015C110.046,35.453,109.981,35.133,109.792,34.887z M99.038,69.312   c-0.417,2.044-2.301,2.955-3.912,3.125l-54.135,4.949l-8.954-40.888h75.664L99.038,69.312z" fill="#323638"/><path d="M48.113,95.688c-3.308,0-5.999,2.692-5.999,6c0,3.308,2.691,6,5.999,6c3.309,0,6-2.691,6-6   C54.114,98.379,51.422,95.688,48.113,95.688z M48.113,105.651c-2.185,0-3.962-1.778-3.962-3.963c0-2.186,1.777-3.963,3.962-3.963   s3.963,1.778,3.963,3.963C52.077,103.873,50.298,105.651,48.113,105.651z" fill="#323638"/><path d="M91.974,95.688c-3.309,0-6,2.692-6,6c0,3.308,2.691,6,6,6c3.308,0,5.999-2.691,5.999-6   C97.973,98.379,95.282,95.688,91.974,95.688z M91.974,105.651c-2.185,0-3.963-1.778-3.963-3.963c0-2.186,1.778-3.963,3.963-3.963   s3.962,1.778,3.962,3.963C95.936,103.873,94.159,105.651,91.974,105.651z" fill="#323638"/></g></svg>